<?xml version="1.0" standalone="no"?>
<!DOCTYPE svg PUBLIC "-//W3C//DTD SVG 20010904//EN"
 "http://www.w3.org/TR/2001/REC-SVG-20010904/DTD/svg10.dtd">
<svg version="1.0" xmlns="http://www.w3.org/2000/svg"
 width="512.000000pt" height="512.000000pt" viewBox="0 0 512.000000 512.000000"
 preserveAspectRatio="xMidYMid meet">
<metadata>
Created by potrace 1.11, written by Peter Selinger 2001-2013
</metadata>
<g transform="translate(0.000000,512.000000) scale(0.100000,-0.100000)"
fill="#000000" stroke="none">
<path d="M695 5095 c-14 -13 -25 -36 -25 -50 0 -14 11 -37 25 -50 21 -22 33
-25 100 -25 l75 0 0 -385 c0 -212 -3 -385 -7 -386 -5 0 -150 0 -323 -1 -364
-1 -375 -3 -456 -83 -92 -91 -84 81 -84 -1857 0 -1673 1 -1709 20 -1760 39
-104 139 -173 258 -177 21 -1 22 -4 22 -102 0 -86 3 -107 22 -141 52 -92 174
-102 245 -20 27 32 33 63 33 173 l0 89 63 0 c77 1 1648 1 1700 0 l37 0 0 -95
c0 -116 17 -165 67 -196 70 -43 147 -32 200 29 27 32 33 63 33 173 l0 89 73 0
c470 4 1761 0 1765 -5 4 -3 7 -53 7 -110 1 -101 2 -106 32 -142 55 -69 152
-80 214 -25 41 37 55 86 54 190 l-1 89 58 13 c96 21 184 102 208 191 7 25 9
363 8 976 l-3 938 -27 47 c-37 63 -98 112 -161 132 -44 13 -102 15 -392 13
-187 -2 -346 -2 -352 1 -10 3 -13 61 -13 242 0 213 -2 243 -19 282 -24 54 -59
91 -114 121 -42 22 -46 22 -497 24 -250 1 -474 3 -497 3 l-42 0 -3 353 c-3
339 -4 353 -25 392 -30 56 -80 104 -133 129 -42 20 -64 21 -345 23 -165 1
-315 2 -332 2 l-33 1 0 385 0 385 75 0 c67 0 79 3 100 25 34 33 33 77 -1 104
-26 21 -33 21 -806 21 l-779 0 -24 -25z m1287 -501 c2 -207 0 -380 -3 -386 -5
-7 -779 -15 -936 -9 l-23 1 0 385 0 385 480 0 480 0 2 -376z m2009 -1474 l29
-28 0 -234 0 -233 -510 0 -510 0 0 263 0 262 481 0 481 -1 29 -29z"/>
</g>
</svg>
